<?xml version="1.0" standalone="no"?>
<!DOCTYPE svg PUBLIC "-//W3C//DTD SVG 20010904//EN"
 "http://www.w3.org/TR/2001/REC-SVG-20010904/DTD/svg10.dtd">
<svg version="1.0" xmlns="http://www.w3.org/2000/svg"
 width="129.000000pt" height="139.000000pt" viewBox="0 0 129.000000 139.000000"
 preserveAspectRatio="xMidYMid meet">

<g transform="translate(0.000000,139.000000) scale(0.100000,-0.100000)"
fill="#990000" stroke="none">
<path d="M4 1375 c-4 -9 -4 -149 -1 -313 5 -306 11 -356 55 -482 85 -244 290
-463 515 -550 66 -26 73 -27 111 -14 201 71 400 254 501 459 83 170 88 204 93
583 l3 332 -160 0 -161 0 0 -65 c0 -86 -17 -105 -95 -105 l-55 0 0 85 0 85
-167 -2 -168 -3 -3 -82 -3 -83 -49 0 c-72 0 -90 21 -90 105 l0 65 -160 0
c-135 0 -162 -2 -166 -15z m316 -68 c0 -84 16 -100 102 -101 l63 -1 3 83 3 82
154 0 155 0 0 -85 0 -85 44 0 c55 0 104 17 116 40 6 10 10 44 10 74 l0 56 150
0 150 0 0 -282 c0 -238 -3 -298 -19 -374 -61 -296 -249 -537 -517 -660 -40
-19 -81 -34 -91 -34 -32 0 -183 78 -255 131 -173 129 -300 328 -348 547 -17
75 -20 128 -20 380 l0 292 150 0 150 0 0 -63z"/>
<path d="M73 1043 c4 -240 7 -289 25 -360 65 -253 227 -455 459 -572 34 -17
73 -31 87 -31 38 0 175 74 248 134 117 97 205 217 261 360 51 125 58 181 64
474 l5 272 -96 0 -96 0 0 -25 c0 -37 -23 -86 -54 -115 -25 -23 -37 -25 -132
-28 l-104 -4 0 86 0 86 -100 0 -100 0 0 -85 0 -85 -88 0 c-65 0 -96 5 -121 18
-40 22 -71 73 -71 119 l0 33 -96 0 -96 0 5 -277z m338 -83 c65 0 89 -3 89 -12
-1 -28 -80 -126 -139 -170 -34 -27 -66 -48 -71 -48 -11 0 -30 114 -30 185 l0
58 31 -7 c17 -3 71 -6 120 -6z m619 -29 c0 -44 -19 -194 -26 -200 -6 -6 -106
64 -136 96 -35 38 -78 103 -78 119 0 10 26 14 103 17 56 1 110 4 120 5 14 2
17 -6 17 -37z m-278 -253 c32 -31 85 -73 118 -93 l60 -37 -17 -30 c-47 -81
-222 -228 -271 -228 -20 0 -117 63 -166 109 -31 28 -116 138 -116 150 0 4 19
16 43 28 61 30 140 97 194 166 l47 60 25 -34 c14 -19 51 -60 83 -91z"/>
</g>
</svg>
