<?xml version="1.0" encoding="UTF-8" standalone="no"?>
<!-- Created with Inkscape (http://www.inkscape.org/) -->

<svg
   version="1.1"
   id="svg2"
   xml:space="preserve"
   width="377.95334"
   height="377.95334"
   viewBox="0 0 377.95334 377.95334"
   sodipodi:docname="HYU_logo_singlecolor_ai.ai"
   xmlns:inkscape="http://www.inkscape.org/namespaces/inkscape"
   xmlns:sodipodi="http://sodipodi.sourceforge.net/DTD/sodipodi-0.dtd"
   xmlns="http://www.w3.org/2000/svg"
   xmlns:svg="http://www.w3.org/2000/svg"><defs
     id="defs6"><clipPath
       clipPathUnits="userSpaceOnUse"
       id="clipPath16"><path
         d="M 0,283.465 H 283.465 V 0 H 0 Z"
         id="path14" /></clipPath></defs><sodipodi:namedview
     id="namedview4"
     pagecolor="#ffffff"
     bordercolor="#666666"
     borderopacity="1.0"
     inkscape:pageshadow="2"
     inkscape:pageopacity="0.0"
     inkscape:pagecheckerboard="0" /><g
     id="g8"
     inkscape:groupmode="layer"
     inkscape:label="HYU_logo_singlecolor_ai"
     transform="matrix(1.3333333,0,0,-1.3333333,0,377.95333)"><g
       id="g10"><g
         id="g12"
         clip-path="url(#clipPath16)"><g
           id="g18"
           transform="translate(3.7368,141.7271)"><path
             d="m 0,0 c 0,76.008 61.835,137.834 137.837,137.834 75.995,0 137.825,-61.826 137.825,-137.834 0,-76.004 -61.83,-137.831 -137.825,-137.831 C 61.835,-137.831 0,-76.004 0,0 m -1.067,0 c 0,-76.587 62.313,-138.894 138.904,-138.894 76.583,0 138.891,62.307 138.891,138.894 0,76.588 -62.308,138.904 -138.891,138.904 C 61.246,138.904 -1.067,76.588 -1.067,0"
             style="fill:#004583;fill-opacity:1;fill-rule:nonzero;stroke:none"
             id="path20" /></g><g
           id="g22"
           transform="translate(197.4492,185.9077)"><path
             d="M 0,0 V -4.646 H 8.635 C 8.631,-5.649 8.6,-21.202 8.6,-22.208 h -8.895 v -23.115 h 8.86 c 0,-1.009 0.03,-16.784 0.03,-17.792 -1.074,0.008 -58.291,0.101 -59.358,0.101 v 4.064 h -4.558 v -4.165 h -40.558 c -7.922,0 -15.554,3.498 -19.903,9.132 -3.737,4.369 -5.963,10.027 -5.963,15.133 0,6.801 1.731,11.954 5.445,16.216 l 0.792,0.913 c 0,0 -3.679,-0.012 -4.488,-0.016 v 17.091 h 34.062 v 4.567 h 19.313 v -4.567 h 46.994 v 4.605 C -18.613,-0.038 -1.014,-0.005 0,0 m -20.724,1.055 v -4.602 h -44.795 v 4.568 h -21.516 v -4.568 h -34.058 v -19.288 c 0,0 2.192,0.003 3.306,0.006 -3.393,-4.294 -5.055,-9.398 -5.055,-16.021 0,-5.362 2.321,-11.283 6.21,-15.826 4.541,-5.874 12.499,-9.537 20.753,-9.537 h 41.652 v 4.167 h 2.368 V -64.11 L 9.696,-64.213 9.662,-44.228 H 0.801 v 20.923 H 9.696 L 9.737,-3.547 H 1.104 v 4.649 z"
             style="fill:#004583;fill-opacity:1;fill-rule:nonzero;stroke:none"
             id="path24" /></g><g
           id="g26"
           transform="translate(181.2852,163.146)"><path
             d="M 0,0 H -4.401 V -4.303 H 0 v -2.993 h -4.401 v -13.496 h -0.012 c -0.04,-4.573 -4.975,-8.298 -11.181,-8.298 -6.203,0 -11.14,3.725 -11.176,8.298 0.036,4.577 4.973,8.296 11.176,8.296 2.215,0 4.273,-0.475 5.997,-1.297 V 7.386 h 5.196 V 2.999 l 4.401,0 z m -31.662,-1.609 c 0,4.643 4.449,8.415 10.303,8.415 5.886,0 10.324,-3.772 10.324,-8.415 0,-4.661 -4.438,-8.421 -10.324,-8.421 -5.854,0 -10.303,3.76 -10.303,8.421 m -15.961,-2.694 h -4.232 v -12.723 h -5.189 V 7.386 h 5.189 v -8.701 h 4.232 z m -3.895,-23.8 -17.797,0.018 c -3.673,0 -5.935,2.121 -5.935,5.6 v 6.925 h 5.638 v -9.546 h 18.094 z M -79.22,-5.521 c 0,2.303 1.347,4.343 3.522,5.675 h -3.597 v 2.997 h 19.091 V 0.154 h -3.602 c 2.163,-1.332 3.509,-3.372 3.509,-5.675 0,-4.004 -4.075,-7.257 -9.461,-7.257 -5.386,0 -9.462,3.253 -9.462,7.257 m 4.396,12.907 h 10.16 V 4.398 h -10.16 z M 21.35,3.39 v 11.332 h -8.729 v 4.419 H -0.146 v -4.419 h -53.551 v 4.419 h -12.767 v -4.419 h -33.614 V 3.39 h 10.114 c -7.013,-3.061 -11.536,-9.747 -11.536,-19.517 0,-13.112 12.33,-20.577 22.258,-20.577 h 37.076 v 3.985 h 10.494 v -3.985 H 21.35 v 11.33 H 12.621 V 3.39 Z m -36.944,-18.754 c -3.154,0 -6,-2.037 -6,-5.428 0,-3.354 2.846,-5.416 6,-5.416 3.164,0 5.997,2.062 5.997,5.416 0,3.391 -2.833,5.428 -5.997,5.428 m -49.565,9.843 c 0,2.988 -2.051,5.244 -4.599,5.244 -2.536,0 -4.594,-2.256 -4.594,-5.244 0,-3.04 2.058,-5.246 4.594,-5.246 2.548,0 4.599,2.206 4.599,5.246 m 48.824,3.912 c 0,3.492 -2.25,5.832 -5.024,5.832 -2.758,0 -5.008,-2.34 -5.008,-5.832 0,-3.585 2.257,-5.856 5.008,-5.856 2.78,0 5.024,2.271 5.024,5.856"
             style="fill:#004583;fill-opacity:1;fill-rule:nonzero;stroke:none"
             id="path28" /></g><g
           id="g30"
           transform="translate(228.3125,218.0815)"><path
             d="M 0,0 C 1.418,1.324 1.907,2.842 0.59,4.364 0.333,4.644 0.007,4.944 -0.221,5.052 L -5.246,0.385 -4.704,-0.186 C -3.387,-1.606 -1.48,-1.367 0,0 m 1.517,-139.719 c -2.052,-0.312 -3.494,-2.219 -3.195,-4.281 0.297,-2.066 2.203,-3.502 4.268,-3.208 2.069,0.302 3.504,2.218 3.199,4.278 -0.291,2.067 -2.209,3.502 -4.272,3.211 m -160.434,150.32 c -1.078,0.916 -2.786,2.455 -3.928,3.498 l -0.082,-0.067 c 0.804,-1.323 2.081,-3.364 2.757,-4.53 l 2.426,-4.188 2.494,2.107 z m 107.884,-190.476 c -1.836,0.901 -4.051,0.149 -4.955,-1.687 -0.904,-1.815 -0.141,-4.046 1.692,-4.932 1.823,-0.909 4.044,-0.167 4.954,1.664 0.899,1.836 0.141,4.053 -1.691,4.955 m -147.432,141.598 -0.041,-0.093 c 1.376,-0.718 3.522,-1.811 4.711,-2.461 l 4.238,-2.329 1.043,3.093 -4.785,0.827 c -1.394,0.219 -3.651,0.665 -5.166,0.963 M -170.972,-144 c 0.291,2.062 -1.143,3.969 -3.195,4.281 -2.064,0.291 -3.987,-1.144 -4.267,-3.211 -0.309,-2.06 1.119,-3.976 3.189,-4.278 2.064,-0.294 3.976,1.142 4.273,3.208 m 49.347,-35.875 c -1.824,-0.902 -2.582,-3.119 -1.689,-4.955 0.92,-1.831 3.136,-2.573 4.965,-1.664 1.831,0.886 2.583,3.117 1.68,4.932 -0.903,1.836 -3.107,2.588 -4.956,1.687 m 151.473,71.012 c -4.313,-4.868 -10.406,-6.509 -10.406,-6.509 0,0 0.887,6.242 5.188,11.117 4.315,4.869 10.162,5.903 10.162,5.903 0,0 -0.642,-5.642 -4.944,-10.511 m -7.019,-18.141 c -5.083,-4.053 -11.373,-4.627 -11.373,-4.627 0,0 1.965,6.004 7.047,10.06 5.096,4.044 11.03,4.044 11.03,4.044 0,0 -1.602,-5.432 -6.704,-9.477 M 9.544,-146.163 c -1.639,-0.235 -3.195,-0.075 -4.402,0.39 0.781,-1.036 1.377,-2.478 1.615,-4.134 0.496,-3.451 -0.577,-7.771 -2.611,-8.06 -2.052,-0.297 -4.291,3.542 -4.782,6.991 -0.237,1.657 -0.075,3.214 0.385,4.429 -1.031,-0.785 -2.478,-1.375 -4.133,-1.606 -3.463,-0.51 -7.782,0.567 -8.073,2.61 -0.292,2.039 3.555,4.281 7.019,4.765 1.65,0.245 3.207,0.088 4.414,-0.373 -0.788,1.024 -1.376,2.469 -1.616,4.125 -0.502,3.454 0.571,7.777 2.617,8.073 2.042,0.295 4.274,-3.551 4.781,-7.011 0.239,-1.655 0.063,-3.214 -0.385,-4.411 1.019,0.775 2.46,1.367 4.121,1.602 3.452,0.495 7.783,-0.571 8.069,-2.603 0.303,-2.039 -3.551,-4.293 -7.019,-4.787 m -21.39,-24.894 c -5.968,-1.364 -11.553,0.72 -11.553,0.72 0,0 4.121,4.307 10.103,5.683 5.962,1.357 11.017,-1.069 11.017,-1.069 0,0 -3.585,-3.958 -9.567,-5.334 m -16.789,-10.234 c -5.835,0.012 -10.574,3.157 -10.574,3.157 0,0 4.75,3.109 10.604,3.081 5.846,-0.01 10.009,-3.347 10.009,-3.347 0,0 -4.186,-2.911 -10.039,-2.891 m -11.165,-8.241 c -0.89,-1.806 -5.246,-1.492 -8.294,0.015 -1.474,0.721 -2.64,1.721 -3.359,2.752 0.058,-1.257 -0.268,-2.754 -0.996,-4.233 -1.498,-3.052 -4.757,-5.958 -6.558,-5.05 -1.819,0.881 -1.493,5.219 0.024,8.294 0.716,1.464 1.712,2.624 2.744,3.342 -1.266,-0.061 -2.751,0.268 -4.226,0.99 -3.067,1.504 -5.97,4.757 -5.065,6.576 0.881,1.807 5.234,1.49 8.301,-0.018 1.468,-0.719 2.629,-1.725 3.352,-2.748 -0.07,1.258 0.256,2.751 0.984,4.215 1.511,3.074 4.764,5.967 6.571,5.071 1.812,-0.891 1.486,-5.243 -0.018,-8.303 -0.728,-1.471 -1.713,-2.621 -2.751,-3.35 1.265,0.054 2.758,-0.248 4.219,-0.977 3.074,-1.517 5.966,-4.774 5.072,-6.576 m -46.934,-4.351 c -2.566,0 -4.646,2.075 -4.646,4.646 0,2.559 2.08,4.635 4.646,4.635 2.56,0 4.641,-2.076 4.641,-4.635 0,-2.571 -2.081,-4.646 -4.641,-4.646 m -25.458,10.461 c -1.463,-0.722 -2.954,-1.051 -4.226,-0.99 1.038,-0.718 2.035,-1.878 2.752,-3.342 1.516,-3.075 1.836,-7.413 0.029,-8.294 -1.813,-0.908 -5.072,1.998 -6.576,5.05 -0.728,1.479 -1.044,2.976 -0.985,4.233 -0.723,-1.031 -1.878,-2.031 -3.359,-2.752 -3.06,-1.507 -7.397,-1.821 -8.301,-0.015 -0.887,1.802 2,5.059 5.072,6.576 1.469,0.729 2.961,1.031 4.226,0.977 -1.037,0.729 -2.023,1.879 -2.757,3.35 -1.504,3.06 -1.825,7.412 -0.012,8.303 1.813,0.896 5.055,-1.997 6.577,-5.071 0.723,-1.464 1.043,-2.957 0.979,-4.215 0.717,1.023 1.871,2.029 3.352,2.748 3.067,1.508 7.415,1.825 8.307,0.018 0.893,-1.819 -2.012,-5.072 -5.078,-6.576 m -31.824,2.131 c -5.853,-0.02 -10.033,2.891 -10.033,2.891 0,0 4.163,3.337 10.005,3.347 5.852,0.028 10.604,-3.081 10.604,-3.081 0,0 -4.74,-3.145 -10.576,-3.157 m -16.789,10.234 c -5.987,1.376 -9.567,5.334 -9.567,5.334 0,0 5.049,2.426 11.018,1.069 5.981,-1.376 10.104,-5.683 10.104,-5.683 0,0 -5.586,-2.084 -11.555,-0.72 m -11.205,20.081 c -0.495,-3.449 -2.74,-7.288 -4.774,-6.991 -2.052,0.289 -3.119,4.609 -2.635,8.06 0.256,1.656 0.839,3.098 1.62,4.134 -1.201,-0.465 -2.763,-0.625 -4.407,-0.39 -3.457,0.494 -7.311,2.748 -7.013,4.787 0.297,2.032 4.617,3.098 8.069,2.603 1.661,-0.235 3.107,-0.827 4.121,-1.602 -0.449,1.197 -0.624,2.756 -0.379,4.411 0.501,3.46 2.74,7.306 4.781,7.011 2.04,-0.296 3.118,-4.619 2.617,-8.073 -0.24,-1.656 -0.828,-3.101 -1.615,-4.125 1.212,0.461 2.763,0.618 4.418,0.373 3.453,-0.484 7.305,-2.726 7.019,-4.765 -0.302,-2.043 -4.622,-3.12 -8.085,-2.61 -1.65,0.231 -3.102,0.821 -4.122,1.606 0.461,-1.215 0.619,-2.772 0.385,-4.429 m -30.175,33.449 c 0,0 5.941,0 11.03,-4.044 5.084,-4.056 7.043,-10.06 7.043,-10.06 0,0 -6.285,0.574 -11.38,4.627 -5.084,4.045 -6.693,9.477 -6.693,9.477 m -5.246,19.175 c 0,0 5.836,-1.034 10.143,-5.903 4.303,-4.875 5.195,-11.117 5.195,-11.117 0,0 -6.086,1.641 -10.395,6.509 -4.314,4.869 -4.943,10.511 -4.943,10.511 m 15.227,2.532 c 0.035,-3.573 -2.198,-6.481 -2.198,-6.481 0,0 -2.279,2.864 -2.326,6.435 -0.035,3.56 2.186,6.489 2.186,6.489 0,0 2.292,-2.877 2.338,-6.443 m 6.821,-9.813 c -1.248,-5.379 -5.037,-9.084 -5.037,-9.084 0,0 -1.539,4.493 -0.291,9.853 1.235,5.382 5.107,8.346 5.107,8.346 0,0 1.457,-3.747 0.221,-9.115 m -23.056,43.279 9.28,-1.207 0.606,4.617 -9.35,1.207 0.821,4.422 22.975,-3.008 -0.816,-4.422 -9.52,1.259 -0.606,-4.623 9.514,-1.262 -0.35,-4.416 -22.98,3.014 z m 29.247,-58.391 c -0.297,-5.503 -3.381,-9.82 -3.381,-9.82 0,0 -2.291,4.153 -2.011,9.676 0.302,5.503 3.603,9.087 3.603,9.087 0,0 2.069,-3.433 1.789,-8.943 m -22.648,86.463 23.592,-3.188 -1.556,-4.067 -5.282,0.749 -1.323,-3.905 4.64,-2.641 -1.224,-4.238 -20.532,12.382 z m 7.502,16.647 16.825,-2.657 0.035,0.055 -14.008,7.482 2.092,3.343 20.136,-11.502 -2.233,-3.457 -16.288,2.559 -0.193,0.091 13.694,-7.518 -1.772,-3.524 -20.165,11.546 z m 12.738,18.868 5.328,-2.41 c 1.388,-0.641 2.961,-1.406 4.483,-2.248 l 0.036,0.05 c -1.085,1.291 -2.117,2.661 -3.102,4.025 l -3.299,4.6 3.112,3.36 7.311,-12.889 6.885,-5.85 -2.903,-3.393 -6.74,5.739 -14.055,5.326 z m 18.072,17.912 18.597,-14.904 -3.522,-2.681 -4.238,3.477 -3.148,-2.658 2.694,-4.781 -3.201,-2.999 -11.257,21.1 z m 15.024,10.371 7.513,-6.203 c 1.452,-1.224 3.854,-3.23 5.393,-4.669 l 0.058,0.023 c -1.287,2.049 -3.486,5.393 -5.532,9.077 l -2.49,4.506 3.499,1.778 11.275,-20.299 -3.65,-1.775 -7.404,6.004 c -1.603,1.333 -3.923,3.352 -5.375,4.921 l -0.064,-0.035 c 1.213,-1.976 3.073,-4.988 5.323,-9.036 l 2.559,-4.62 -3.358,-2.061 -11.234,20.278 z m 26.828,11.752 c 1.655,0.522 2.99,0.595 3.778,0.49 l 0.424,-3.9 c -0.71,0.097 -1.572,0.029 -2.651,-0.312 -2.88,-0.93 -4.548,-3.64 -2.724,-9.348 1.685,-5.249 4.332,-6.468 6.309,-5.836 0.39,0.126 0.664,0.251 0.815,0.363 l -1.696,5.281 -1.941,-0.624 -1.119,3.472 5.87,1.889 3.737,-11.677 c -0.805,-0.691 -2.694,-1.723 -4.279,-2.23 -2.501,-0.801 -4.612,-0.688 -6.535,0.303 -2.454,1.213 -4.507,4.127 -5.648,7.911 -2.45,7.969 1.031,12.726 5.66,14.218 m 28.553,4.793 0.502,-14.959 c 0.117,-3.37 1.178,-4.355 2.326,-4.317 1.294,0.044 2.185,0.996 2.065,4.465 l -0.534,14.938 4.485,-0.028 0.477,-13.98 c 0.199,-5.879 -1.905,-9.153 -6.324,-9.304 -4.798,-0.167 -6.78,3.066 -6.978,8.814 l -0.479,14.032 z m 20.049,-0.613 3.975,-0.501 3.324,-16.553 0.063,-0.012 2.187,15.629 3.865,-0.807 -3.889,-22.841 -3.97,0.825 -3.125,16.527 -0.064,0.015 -2.36,-15.568 -3.912,0.457 z m 23.405,-4.975 4.228,-1.435 -7.446,-21.911 -4.218,1.443 z m 11.788,-4.402 4.484,-2.017 -5.714,-17.358 0.064,-0.026 10.634,14.816 4.231,-2.437 -15.174,-17.995 -4.408,2.258 z m 28.921,-17.687 -2.413,-3.169 -4.396,3.315 -3.176,-4.209 4.179,-3.16 -2.226,-2.958 -4.187,3.156 -3.731,-4.943 4.727,-3.568 -2.39,-3.203 -8.283,6.247 13.939,18.497 z M 2.787,7.273 C 4.449,5.48 5.592,3.58 5.615,1.551 5.65,-0.312 4.804,-1.665 3.354,-3.008 1.552,-4.681 -0.873,-5.311 -3.27,-4.334 l -0.051,-0.041 c 0.623,-1.568 0.075,-3.136 -1.417,-5.13 -1.57,-2.061 -3.336,-4.746 -3.674,-5.623 l -3.061,3.729 c 0.286,0.634 1.633,2.579 3.253,4.546 1.807,2.256 1.919,3.332 0.905,4.431 l -0.439,0.466 -6.704,-6.229 -3.188,3.143 16.983,15.763 C 0.352,9.736 1.634,8.521 2.787,7.273 M 7.823,-9.502 c 3.096,1.991 6.99,1.588 9.596,-2.445 0.799,-1.263 1.236,-2.686 1.26,-3.482 L 15.065,-16.9 c -0.007,0.754 -0.227,1.787 -0.932,2.88 -1.031,1.603 -2.496,1.752 -3.528,1.084 -1.142,-0.734 -1.382,-1.697 -1.293,-4.6 0.093,-3.535 -1.243,-5.73 -3.277,-7.039 -3.52,-2.264 -7.515,-1.156 -9.951,2.62 -0.987,1.539 -1.568,3.32 -1.599,4.183 l 3.586,1.54 c 0.064,-1.044 0.6,-2.56 1.3,-3.644 1.137,-1.784 2.611,-2.059 3.871,-1.242 1.399,0.912 1.532,2.206 1.538,4.512 -0.092,3.67 1.295,5.979 3.043,7.104 m -155.547,-159.471 c 0,0 -3.923,2.816 -6.098,7.995 -2.157,5.184 -0.71,9.94 -0.71,9.94 0,0 3.433,-2.247 5.591,-7.413 2.155,-5.203 1.217,-10.522 1.217,-10.522 m 15.396,-7.266 c 0,0 -4.477,1.844 -7.747,6.424 -3.277,4.547 -2.945,9.496 -2.945,9.496 0,0 3.849,-1.398 7.119,-5.958 3.283,-4.564 3.573,-9.962 3.573,-9.962 m 99.741,6.424 c -3.259,-4.58 -7.735,-6.424 -7.735,-6.424 0,0 0.296,5.398 3.566,9.962 3.266,4.56 7.118,5.958 7.118,5.958 0,0 0.339,-4.949 -2.949,-9.496 m 13.758,8.837 c -2.18,-5.179 -6.104,-7.995 -6.104,-7.995 0,0 -0.933,5.319 1.226,10.522 2.155,5.166 5.583,7.413 5.583,7.413 0,0 1.445,-4.756 -0.705,-9.94 m -68.272,-6.978 c -50.585,0.197 -91.444,41.379 -91.24,91.966 0.198,50.59 41.38,91.445 91.969,91.244 50.578,-0.199 91.421,-41.382 91.217,-91.972 -0.193,-50.584 -41.367,-91.442 -91.946,-91.238 M 25.522,-27.35 4.629,-37.088 l -1.871,4.048 20.893,9.727 z m 6.874,-19.998 -3.946,-1.213 -1.061,3.943 -18.195,-5.593 -1.312,4.262 18.195,5.59 -1.289,3.845 3.941,1.198 z M 9.928,-130.565 c 0,0 -3.095,4.317 -3.38,9.82 -0.286,5.51 1.789,8.943 1.789,8.943 0,0 3.3,-3.584 3.585,-9.087 0.299,-5.523 -1.994,-9.676 -1.994,-9.676 m 7.836,15.848 c 0,0 -3.784,3.705 -5.031,9.084 -1.237,5.368 0.22,9.115 0.22,9.115 0,0 3.861,-2.964 5.103,-8.346 1.258,-5.36 -0.292,-9.853 -0.292,-9.853 m 6.308,18.851 c -0.036,-3.571 -2.32,-6.435 -2.32,-6.435 0,0 -2.234,2.908 -2.193,6.481 0.047,3.566 2.332,6.443 2.332,6.443 0,0 2.22,-2.929 2.181,-6.489 m 10.428,37.581 -10.132,-4.005 0.011,-0.073 10.763,-1.166 0.361,-4.556 -14.498,3.391 -8.86,-1.114 -0.578,4.44 8.709,1.078 13.439,6.733 z M -86.22,54.916 C -158.701,55.202 -217.708,-3.331 -218,-75.833 c -0.28,-72.497 58.261,-131.491 130.742,-131.779 72.486,-0.288 131.488,58.241 131.774,130.74 0.292,72.5 -58.25,131.499 -130.736,131.788"
             style="fill:#004583;fill-opacity:1;fill-rule:nonzero;stroke:none"
             id="path32" /></g><g
           id="g34"
           transform="translate(127.3901,99.292)"><path
             d="m 0,0 c -0.479,-0.099 -0.903,-0.273 -1.283,-0.516 -0.367,-0.234 -0.671,-0.56 -0.892,-0.962 -0.216,-0.402 -0.326,-0.899 -0.326,-1.5 0,-0.597 0.11,-1.095 0.326,-1.501 0.221,-0.403 0.525,-0.716 0.892,-0.964 0.38,-0.233 0.804,-0.406 1.283,-0.514 0.482,-0.101 0.967,-0.154 1.469,-0.154 0.501,0 0.973,0.053 1.463,0.154 0.478,0.108 0.903,0.281 1.277,0.514 0.378,0.248 0.676,0.561 0.898,0.964 0.209,0.406 0.314,0.904 0.314,1.501 0,0.601 -0.105,1.098 -0.314,1.5 C 4.885,-1.076 4.587,-0.75 4.209,-0.516 3.835,-0.273 3.41,-0.099 2.932,0 2.442,0.101 1.97,0.162 1.469,0.162 0.967,0.162 0.482,0.101 0,0 m -4.156,-9.919 0.371,-0.214 c 0,-0.117 0.018,-0.243 0.054,-0.405 0.023,-0.158 0.082,-0.306 0.163,-0.423 0.209,-0.296 0.489,-0.558 0.839,-0.773 0.362,-0.218 0.734,-0.403 1.144,-0.534 0.396,-0.139 0.815,-0.251 1.223,-0.296 0.415,-0.062 0.8,-0.092 1.126,-0.092 3.235,0 4.96,1.829 5.176,5.461 C 5.06,-7.682 4.185,-8.097 3.316,-8.446 2.436,-8.793 1.527,-8.964 0.571,-8.964 c -0.753,0 -1.516,0.108 -2.315,0.307 -0.786,0.211 -1.504,0.526 -2.134,0.972 -0.635,0.437 -1.159,1.011 -1.556,1.696 -0.402,0.687 -0.611,1.52 -0.611,2.496 0,1.169 0.232,2.18 0.71,3.009 0.449,0.832 1.067,1.517 1.819,2.062 0.746,0.543 1.586,0.933 2.507,1.191 0.933,0.264 1.842,0.377 2.757,0.377 1.143,0 2.186,-0.208 3.137,-0.638 0.944,-0.42 1.766,-1.026 2.449,-1.798 0.682,-0.772 1.218,-1.691 1.579,-2.748 0.379,-1.063 0.572,-2.229 0.572,-3.504 0,-1.507 -0.217,-2.863 -0.641,-4.064 -0.42,-1.214 -1.032,-2.255 -1.814,-3.119 -0.8,-0.871 -1.725,-1.522 -2.821,-1.977 -1.085,-0.44 -2.321,-0.673 -3.662,-0.673 -0.926,0 -1.736,0.078 -2.378,0.223 -0.659,0.157 -1.207,0.334 -1.638,0.559 -0.437,0.212 -0.793,0.405 -1.055,0.582 -0.275,0.172 -0.502,0.261 -0.665,0.261 -0.216,0 -0.426,-0.075 -0.583,-0.211 l -0.251,0.246 z"
             style="fill:#004583;fill-opacity:1;fill-rule:nonzero;stroke:none"
             id="path36" /></g><g
           id="g38"
           transform="translate(161.1777,99.292)"><path
             d="m 0,0 c -0.482,-0.099 -0.909,-0.273 -1.286,-0.516 -0.361,-0.234 -0.666,-0.56 -0.888,-0.962 -0.21,-0.402 -0.327,-0.899 -0.327,-1.5 0,-0.597 0.117,-1.095 0.327,-1.501 0.222,-0.403 0.527,-0.716 0.888,-0.964 0.377,-0.233 0.804,-0.406 1.286,-0.514 0.479,-0.101 0.963,-0.154 1.471,-0.154 0.501,0 0.973,0.053 1.457,0.154 0.482,0.108 0.908,0.281 1.288,0.514 0.374,0.248 0.664,0.561 0.892,0.964 0.214,0.406 0.321,0.904 0.321,1.501 0,0.601 -0.107,1.098 -0.321,1.5 C 4.88,-1.076 4.59,-0.75 4.216,-0.516 3.836,-0.273 3.41,-0.099 2.928,0 2.444,0.101 1.972,0.162 1.471,0.162 0.963,0.162 0.479,0.101 0,0 m -4.155,-9.919 0.372,-0.214 c 0,-0.117 0.024,-0.243 0.058,-0.405 0.024,-0.158 0.076,-0.306 0.158,-0.423 0.216,-0.296 0.489,-0.558 0.846,-0.773 0.348,-0.218 0.729,-0.403 1.135,-0.534 0.402,-0.139 0.817,-0.251 1.232,-0.296 0.412,-0.062 0.792,-0.092 1.119,-0.092 3.24,0 4.96,1.829 5.176,5.461 C 5.067,-7.682 4.187,-8.097 3.318,-8.446 2.444,-8.793 1.522,-8.964 0.572,-8.964 c -0.745,0 -1.521,0.108 -2.314,0.307 -0.793,0.211 -1.511,0.526 -2.141,0.972 -0.634,0.437 -1.153,1.011 -1.561,1.696 -0.396,0.687 -0.605,1.52 -0.605,2.496 0,1.169 0.236,2.18 0.709,3.009 0.46,0.832 1.069,1.517 1.819,2.062 0.752,0.543 1.591,0.933 2.513,1.191 0.921,0.264 1.85,0.377 2.751,0.377 1.145,0 2.187,-0.208 3.137,-0.638 0.951,-0.42 1.779,-1.026 2.453,-1.798 0.684,-0.772 1.215,-1.691 1.587,-2.748 0.373,-1.063 0.559,-2.229 0.559,-3.504 0,-1.507 -0.203,-2.863 -0.64,-4.064 -0.416,-1.214 -1.027,-2.255 -1.814,-3.119 -0.793,-0.871 -1.724,-1.522 -2.815,-1.977 -1.09,-0.44 -2.314,-0.673 -3.661,-0.673 -0.933,0 -1.733,0.078 -2.379,0.223 -0.658,0.157 -1.207,0.334 -1.644,0.559 -0.437,0.212 -0.787,0.405 -1.049,0.582 -0.281,0.172 -0.495,0.261 -0.665,0.261 -0.221,0 -0.419,-0.075 -0.589,-0.211 l -0.244,0.246 z"
             style="fill:#004583;fill-opacity:1;fill-rule:nonzero;stroke:none"
             id="path40" /></g><g
           id="g42"
           transform="translate(138.1748,99.7246)"><path
             d="M 0,0 0.373,0.311 C 0.535,0.2 0.717,0.146 0.896,0.146 1.014,0.146 1.188,0.277 1.48,0.542 1.759,0.808 2.169,1.095 2.711,1.426 3.248,1.764 3.936,2.051 4.78,2.309 5.625,2.58 6.646,2.714 7.853,2.714 8.664,2.714 9.468,2.631 10.29,2.449 11.111,2.26 11.846,1.965 12.511,1.551 13.186,1.151 13.745,0.638 14.16,0 c 0.426,-0.635 0.635,-1.402 0.635,-2.294 0,-0.841 -0.209,-1.601 -0.652,-2.3 -0.438,-0.714 -1.034,-1.151 -1.783,-1.344 v -0.068 c 0.884,-0.22 1.613,-0.684 2.184,-1.365 0.572,-0.684 0.858,-1.539 0.858,-2.583 0,-1.175 -0.267,-2.149 -0.793,-2.906 -0.53,-0.769 -1.201,-1.373 -1.97,-1.82 -0.787,-0.457 -1.658,-0.748 -2.595,-0.894 -0.933,-0.155 -1.823,-0.234 -2.646,-0.234 -0.939,0 -1.814,0.103 -2.623,0.298 -0.818,0.186 -1.527,0.427 -2.146,0.685 -0.619,0.262 -1.138,0.502 -1.54,0.729 -0.405,0.213 -0.705,0.323 -0.862,0.323 -0.099,0 -0.193,-0.021 -0.269,-0.076 -0.069,-0.041 -0.145,-0.086 -0.232,-0.125 l -0.281,0.094 1.808,4.975 0.345,-0.192 C 1.581,-9.152 1.563,-9.226 1.563,-9.348 v -0.237 c 0,-0.532 0.231,-1.011 0.692,-1.421 0.456,-0.426 0.993,-0.777 1.627,-1.058 0.636,-0.287 1.306,-0.507 1.994,-0.667 0.705,-0.137 1.288,-0.223 1.76,-0.223 0.374,0 0.821,0.038 1.33,0.126 0.502,0.083 0.991,0.234 1.423,0.44 0.442,0.209 0.816,0.487 1.13,0.836 0.308,0.371 0.473,0.842 0.473,1.416 0,0.561 -0.151,1.007 -0.443,1.335 -0.304,0.351 -0.665,0.599 -1.097,0.794 -0.431,0.181 -0.887,0.3 -1.376,0.361 -0.484,0.058 -0.903,0.088 -1.253,0.088 -0.508,0 -0.933,-0.046 -1.301,-0.158 C 6.16,-7.817 5.917,-8.077 5.795,-8.491 H 5.422 v 4.705 h 0.373 c 0.039,-0.461 0.268,-0.773 0.664,-0.913 0.407,-0.162 0.856,-0.231 1.364,-0.231 0.326,0 0.717,0.029 1.155,0.104 0.431,0.066 0.838,0.192 1.219,0.374 0.377,0.187 0.705,0.447 0.967,0.762 0.268,0.319 0.408,0.731 0.408,1.206 0,0.467 -0.117,0.831 -0.36,1.124 -0.231,0.286 -0.537,0.506 -0.922,0.666 C 9.904,-0.531 9.485,-0.417 9.012,-0.36 8.551,-0.308 8.08,-0.271 7.602,-0.271 7.041,-0.271 6.47,-0.343 5.889,-0.494 5.305,-0.611 4.775,-0.804 4.297,-1.041 3.823,-1.26 3.428,-1.527 3.118,-1.798 2.798,-2.075 2.647,-2.354 2.647,-2.626 c 0,-0.105 0.016,-0.21 0.028,-0.326 C 2.698,-3.09 2.729,-3.214 2.77,-3.323 L 2.495,-3.536 Z"
             style="fill:#004583;fill-opacity:1;fill-rule:nonzero;stroke:none"
             id="path44" /></g><g
           id="g46"
           transform="translate(114.1094,84.4238)"><path
             d="m 0,0 c 0.215,0 0.391,0.059 0.548,0.197 0.153,0.12 0.239,0.377 0.239,0.777 v 11.567 c -0.157,0 -0.321,0 -0.513,-0.035 -0.203,-0.015 -0.39,-0.054 -0.582,-0.114 -0.192,-0.061 -0.357,-0.14 -0.514,-0.246 -0.157,-0.104 -0.262,-0.245 -0.321,-0.434 h -0.372 v 4.361 h 0.372 c 0,-0.204 0.094,-0.347 0.281,-0.42 0.197,-0.09 0.362,-0.128 0.53,-0.128 0.35,0 0.653,0.128 0.892,0.372 0.245,0.234 0.361,0.533 0.361,0.88 0,0.323 -0.064,0.53 -0.198,0.614 -0.14,0.095 -0.315,0.172 -0.548,0.218 v 0.406 H 5.201 V 17.609 C 4.961,17.563 4.746,17.472 4.576,17.365 4.419,17.245 4.332,17.076 4.332,16.843 V 0.974 c 0,-0.4 0.087,-0.657 0.244,-0.777 C 4.746,0.059 4.933,0 5.142,0 V -0.41 H 0 Z"
             style="fill:#004583;fill-opacity:1;fill-rule:nonzero;stroke:none"
             id="path48" /></g></g></g></g></svg>
